<svg xmlns="http://www.w3.org/2000/svg" xmlns:xlink="http://www.w3.org/1999/xlink" viewBox="0 0 595.3 523.1" xmlns:v="https://vecta.io/nano"><style><![CDATA[.B{fill:#edf0f8}.C{fill:#fff}.D{fill:#bbcee1}.E{fill:#a7bcce}.F{fill:#50e85e}.G{fill:#ed5561}.H{fill:#1c75bc}.I{fill:#f4c5a2}.J{fill:#f5d012}.K{fill:#9d4d36}.L{fill:#0b3b56}.M{fill:#fed4bd}]]></style><linearGradient id="A" gradientUnits="userSpaceOnUse" x1="498.004" y1="-66.54" x2="68.372" y2="446.514"><stop offset="0" stop-color="#3ed6d3"/><stop offset="1" stop-color="#9548d9"/></linearGradient><path fill="url(#A)" d="M4.1 1s182.6 13.2 50.4 75.7 259.8 73.1 95.1 159.3 36.9 90.8 101.9 81.5c65-9.4-166.7 68.2-184.6 127.6s144.3 84.4 222.4 61c78.1-23.5-11-36.3 5.5-71.3 16.6-35 70.9-79.7 147.8-45.6 65.5 29.1 146.3 27.4 93.7-48.8s57.9-34.7 57.9-34.7V1c.1 0-582.5 0-590.1 0z"/><linearGradient id="B" gradientUnits="userSpaceOnUse" x1="641.103" y1="-126.366" x2="298.545" y2="377.303"><stop offset="0" stop-color="#3ed6d3"/><stop offset="1" stop-color="#9548d9"/></linearGradient><path fill="url(#B)" d="M384.3 1C320.8 20.5 257 60.4 235.5 122c-34.9 100.1 4.3 168.9 73.6 169.5 69.3.5 97-48.2 68.8-77.7-28.1-29.4-59.1 30.2-84 12.5s.5-112.3 119.4-102.8 118.4 53.3 96.5 75.7-5.2 46.4 41.7 50.5c36.5 3.2 42.1 35.1 42.8 49.2V1h-210z"/><g opacity=".4" class="C"><path d="M241.2 119.7v1.8l7.6 4.5v-1.9z"/><use xlink:href="#I"/><use xlink:href="#I" y="3.3"/><path d="M299 164.9v-1.8l-47.3-27.3v1.8zm-57.8-35.2v1.8l7.6 4.5v-1.9z"/><use xlink:href="#I" y="10"/><path d="M299 168.3v-1.9l-47.3-27.3v1.9z"/><use xlink:href="#I" y="20"/><use xlink:href="#I" y="23.3"/><path d="M241.2 159.7v1.9l7.6 4.4v-1.8z"/><use xlink:href="#I" y="40"/><path d="M281.6 186.4l-29.9-17.2v1.8l29.9 17.2zm1.5.9v1.8l15.9 9.2v-1.8zm-16.4-12.8l-15-8.7v1.9l15 8.6zm1.6.9v1.8L299 195v-1.9zm26.7 5.4v1.8l4 2.3v-1.8zm-22-16l-21.3-12.3v1.8l21.3 12.3zm-8.7-31.8l-12.6-7.2v1.8l12.6 7.3zm20.5 11.9l-19-11v1.9l19 10.9zm-11-3l-13.4-7.8v1.9l13.4 7.7zm14 8.1l-12.5-7.2v1.8l12.5 7.2zm1.6.9v1.8l9.6 5.6v-1.9zm-35.2-17v1.8l10.1 5.8v-1.8zm40.9 23.6l-29.3-16.9v1.8l29.3 16.9zm-16.8.3l-19.1-11v1.8l19.1 11.1zm16.8 9.7l-15.2-8.8v1.9l15.2 8.7zm-1.7 9l-18.9-10.8v1.8l18.9 10.9zm-10.3-2.5v1.8l10.3 5.9v-1.8zm-27.7-16l-3.7-2.2v1.8l3.7 2.2zm6.9 4v1.8l19.3 11.1V173zm-1.5-1l-3.8-2.1v1.8l3.8 2.2zm17.2 13.3l-21-12.1v1.8l21 12.2z"/></g><g opacity=".4" class="C"><path d="M241.2 174v1.8l7.6 4.5v-1.9z"/><use xlink:href="#I" y="54.3"/><use xlink:href="#I" y="57.6"/><path d="M299 219.2v-1.8l-47.3-27.3v1.8zM241.2 184v1.8l7.6 4.5v-1.9z"/><use xlink:href="#I" y="64.3"/><path d="M299 222.6v-1.9l-47.3-27.3v1.9z"/><use xlink:href="#I" y="74.3"/><use xlink:href="#I" y="77.6"/><path d="M241.2 214v1.9l7.6 4.4v-1.8z"/><use xlink:href="#I" y="94.3"/><path d="M281.6 240.7l-29.9-17.2v1.8l29.9 17.2zm1.5.9v1.8l15.9 9.2v-1.8zm-16.4-12.8l-15-8.7v1.9l15 8.6zm1.6.9v1.8l30.7 17.8v-1.9zm26.7 5.4v1.8l4 2.3v-1.8zm-22-16l-21.3-12.3v1.8l21.3 12.3zm-8.7-31.8l-12.6-7.2v1.8l12.6 7.3zm20.5 11.9l-19-10.9v1.8l19 10.9zm-11-3l-13.4-7.8v1.9l13.4 7.7zm14 8.1l-12.5-7.2v1.8l12.5 7.2zm1.6.9v1.8l9.6 5.6v-1.9zm-35.2-17v1.8l10.1 5.8V194zm40.9 23.6l-29.3-16.9v1.8l29.3 16.9zm-16.8.3l-19.1-11v1.8l19.1 11.1zm16.8 9.7l-15.2-8.7v1.8l15.2 8.7zm-1.7 9L274.5 220v1.8l18.9 10.9zm-10.3-2.5v1.8l10.3 5.9v-1.8zm-27.7-16l-3.7-2.2v1.8l3.7 2.2zm6.9 4v1.8l19.3 11.1v-1.9zm-1.5-1l-3.8-2.1v1.8l3.8 2.2zm17.2 13.3l-21-12.1v1.8l21 12.2z"/></g><path d="M182.9 316.2l33.4-19.3v4.7l-33.4 19.3z" class="D"/><path d="M185.9 279.5l30.4 17.4-33.4 19.3-30.4-17.4z" class="C"/><path d="M152.5 298.8l30.4 17.4v4.7l-30.4-17.6z" class="E"/><path d="M149.7 260.5l33.4-19.3 6.5 40.5-33.4 19.2z" class="D"/><path d="M179.4 239l3.7 2.2-33.4 19.3-3.8-2.2z" class="C"/><path d="M145.9 258.3l3.8 2.2 6.5 40.4-3.7-2.1z" class="E"/><path d="M165.4 296.6l2.4-4.1 8.7 3.3s-5 10.6-8.7 8.6c-3.7-1.9-2.4-7.8-2.4-7.8z" class="H"/><g class="L"><path d="M170.6 239l16.6.5 6.4 2.7 2.2 17.1c1.4 10.1-.8 36.8-.8 36.8-6.3 3.1-30.5 2.9-30.5 2.9-1.6-12.8-3.2-53.6-3.2-53.6l9.3-6.4z"/><path d="M182.9 239.4l5.8 5c2.5 14.6 2.3 43.3 2 55.5-2.1.3-4.5.6-7 .7-.6-30.4-10.7-59.4-11.4-61.5l10.6.3z"/></g><path d="M184.7 246.2l5.3 2.2-2.1-8.8-2.7-1.9z" class="H"/><path d="M173.2 235.2l12.8 2-1.3 9-12.3-7.2z" class="I"/><path d="M170.1 226.9c0 7 5.1 12.6 11.3 12.6 6.3 0 10-5.6 10-12.6s-3.8-12.6-10-12.6-11.3 5.7-11.3 12.6z" class="M"/><path d="M172.1 237.1l12.6 9.1-5.5 5.4-8.6-12.6z" class="H"/><path fill="#f99840" d="M168 220.5s3-8.5 12.8-8.5c0 0 11.7 0 12.7 15 0 .7-.7 1.1-1.3.8a24.54 24.54 0 0 0-5.8-2.5l.6 1s.2.6-1.1.5l-6.1-1.4s-.5 3.1-4.5 5.1c0 0-.5 5.3-2.4 6.1.1-.1-7.4-5.8-4.9-16.1z"/><path fill="#e8ebf5" d="M436 360l-77-44.7c-3.3-1.9-7.3-1.9-10.6 0L227 385.5c-3.1 1.8-3.1 6.2 0 8l75.3 43.7c3.9 2.3 8.7 2.3 12.6 0l121.1-70a4.14 4.14 0 0 0 0-7.2z"/><path d="M436 367.2l-121.1 70.1c-3.9 2.2-8.7 2.2-12.6 0L227 393.5c-1.5-.9-2.3-2.4-2.3-4v5.9c0 1.5.8 3 2.3 3.9l75.3 43.7c3.9 2.3 8.7 2.3 12.6 0L436 373a4.11 4.11 0 0 0 2.1-3.6h0v-5.8a4.11 4.11 0 0 1-2.1 3.6z" class="E"/><path d="M436 367.2l-121.1 70.1c-1.8 1-3.7 1.6-5.7 1.6v5.8c2-.1 4-.6 5.7-1.6L436 373a4.11 4.11 0 0 0 2.1-3.6h0v-5.8a4.11 4.11 0 0 1-2.1 3.6z" class="D"/><path fill="#8444b2" d="M344.1 339l34.7 19.6 22.1-12.7-34.7-19.7z"/><path fill="#f0cec9" d="M372 358.2v.7l-34.6-19.8v-.6z"/><path fill="#fffbf0" d="M337.4 338.5l34.6 19.7 22.1-12.8-34.7-19.6z"/><path fill="#f5ddd8" d="M372 358.2v.7l22.1-12.7v-.8z"/><path d="M359.7 327.9l-13.4 7.7.6.3 13.4-7.7zm1.4.7l-13.4 7.7.6.4 13.4-7.7zm3.2 1.9l-18.4 10.6.6.3 18.4-10.6zm1.3.7l-18.4 10.6.6.3 18.4-10.6zm1.2.7l-18.3 10.6.6.4 18.3-10.7zm1.3.7l-18.4 10.6.6.4 18.4-10.6zm1.3.8L351 344l.6.3 18.4-10.6zm1.3.7l-18.4 10.6.6.3 18.3-10.6zm1.2.7l-18.3 10.6.5.3 18.4-10.6zm1.3.7l-18.4 10.6.6.4 18.4-10.6zm1.3.7l-18.4 10.7.6.3 18.4-10.6zm1.2.8l-18.3 10.6.6.3 18.3-10.6zm1.3.7l-18.4 10.6.6.3 18.4-10.6zm1.3.7L359.9 349l.6.4 18.4-10.7zm1.3.7l-18.4 10.6.6.4 18.3-10.6zm1.2.8l-18.3 10.6.5.3 18.4-10.6zm1.3.7l-18.4 10.6.6.3 18.4-10.6z" fill="#dfbab8"/><path d="M383.9 374.5l-33-19.1a2.99 2.99 0 0 0-2.9 0L300.1 383a1.23 1.23 0 0 0 0 2.2l32.5 18.8c1.1.6 2.4.6 3.5 0l47.8-27.6a1.05 1.05 0 0 0 0-1.9z" class="C"/><path d="M383.9 376.5l-47.8 27.6c-1.1.6-2.4.6-3.5 0l-32.5-18.8c-.4-.2-.6-.7-.6-1.1v2.3c0 .4.2.9.6 1.1l32.5 18.8c1.1.6 2.4.6 3.5 0l47.8-27.6a1.1 1.1 0 0 0 .6-1h0v-2.3a1.1 1.1 0 0 1-.6 1z" class="D"/><path d="M298.1 339.2l49-28.3c.3-.2.6-.2 1 0h0l1.3.7-1 1.3-.4.4v39.1c0 .6-.3 1.1-.8 1.4l-46.6 26.9-.1.4-1.5 2.1-1.4-.8c-.2-.1-.3-.4-.3-.6v-41.2c0-.6.3-1.1.8-1.4z" class="C"/><path d="M299.5 340l49.2-28.4c.5-.3 1.1.1 1.1.6v41.3c0 .6-.3 1.1-.8 1.4l-49.1 28.4c-.5.3-1.1-.1-1.1-.6v-41.2a1.41 1.41 0 0 1 .7-1.5z" class="D"/><linearGradient id="C" gradientUnits="userSpaceOnUse" x1="339.266" y1="369.243" x2="295.962" y2="304.055"><stop offset="0" stop-color="#1c75bc"/><stop offset=".279" stop-color="#2077bc"/><stop offset=".541" stop-color="#2b7ebc"/><stop offset=".796" stop-color="#3e88bc"/><stop offset="1" stop-color="#5394bc"/></linearGradient><path fill="url(#C)" d="M300.3 342.5l48.2-28v36.8l-48.2 28z"/><g class="D"><path d="M351.9 360.1l-2.4-1.4-2.7 1.6 2.4 1.4zm-3.4 2l-2.4-1.4-2.8 1.5 2.4 1.5z"/><use xlink:href="#J"/><use xlink:href="#K"/><use xlink:href="#J" x="-6.9" y="4"/><use xlink:href="#K" x="-6.9" y="4"/><use xlink:href="#L"/><path d="M327.8 374l-2.4-1.5-2.7 1.6 2.4 1.4z"/><use xlink:href="#L" x="-6.9" y="3.9"/><use xlink:href="#J" x="-24.1" y="13.9"/><use xlink:href="#K" x="-24.1" y="13.9"/><use xlink:href="#J" x="-31" y="17.9"/><path d="M308.2 382.5l-2.8 1.5 2.5 1.5 2.7-1.6zm44.1-19l2.8-1.6-2.4-1.4-2.8 1.6zm-5.8.6l2.4 1.4 2.7-1.6-2.4-1.4z"/><use xlink:href="#M"/><use xlink:href="#N"/><use xlink:href="#O"/><use xlink:href="#N" x="-6.9" y="4"/><use xlink:href="#O" x="-6.9" y="4"/><use xlink:href="#M" x="-17.2" y="9.9"/><path d="M322.4 377.9l2.4 1.4 2.7-1.5-2.4-1.4z"/><use xlink:href="#M" x="-24.1" y="13.8"/><use xlink:href="#N" x="-24.1" y="13.9"/><use xlink:href="#O" x="-24.1" y="13.9"/><path d="M311.3 384.3l-2.7 1.6 2.4 1.4 2.8-1.6zm44.2-19l2.7-1.6-2.4-1.4-2.8 1.6z"/><use xlink:href="#M" x="6.6" y="-0.2"/><path d="M351.3 367.7l-2.4-1.4-2.7 1.6 2.4 1.4z"/><use xlink:href="#M" x="-0.3" y="3.8"/><path d="M339.3 371.8l2.4 1.4 2.8-1.5-2.5-1.5z"/><use xlink:href="#O" x="-0.3" y="3.8"/><use xlink:href="#N" x="-7.2" y="7.8"/><use xlink:href="#O" x="-7.2" y="7.8"/><use xlink:href="#M" x="-17.5" y="13.7"/><path d="M322.1 381.7l2.4 1.4 2.7-1.5-2.4-1.4z"/><use xlink:href="#M" x="-24.4" y="17.6"/><use xlink:href="#J" x="-24.7" y="21.5"/><path d="M314.5 386.1l-2.8 1.6 2.5 1.4 2.7-1.6zm44.1-19l2.8-1.6-2.5-1.4-2.7 1.6z"/><use xlink:href="#K" x="16.3" y="1.5"/><use xlink:href="#L" x="23.2" y="-2.5"/><path d="M351 371.5l-2.4-1.4-2.7 1.6 2.4 1.4z"/><use xlink:href="#L" x="16.3" y="1.5"/><path d="M344.2 375.5l-2.5-1.5-2.7 1.6 2.4 1.4z"/><use xlink:href="#K" x="-0.9" y="11.4"/><use xlink:href="#J" x="-7.8" y="15.4"/><use xlink:href="#K" x="-7.8" y="15.4"/><path d="M330.4 383.4L328 382l-2.8 1.6 2.4 1.4zm-3.5 2l-2.4-1.4-2.7 1.5 2.4 1.5z"/><use xlink:href="#L" x="-7.8" y="15.3"/><path d="M317.6 387.9l-2.7 1.6 2.4 1.4 2.8-1.6zm44.2-18.9l2.7-1.6-2.4-1.4-2.8 1.5z"/><use xlink:href="#J" x="16" y="5.3"/><use xlink:href="#K" x="16" y="5.3"/><use xlink:href="#L" x="22.9" y="1.3"/><path d="M350.7 375.3l-2.4-1.4-2.7 1.6 2.4 1.4z"/><use xlink:href="#L" x="16" y="5.3"/><path d="M343.9 379.3l-2.5-1.5-2.7 1.6 2.4 1.4z"/><use xlink:href="#K" x="-1.2" y="15.2"/><use xlink:href="#J" x="-8.1" y="19.2"/><use xlink:href="#K" x="-8.1" y="19.2"/><use xlink:href="#L" x="-1.2" y="15.2"/><path d="M326.6 389.2l-2.4-1.4-2.7 1.5 2.4 1.5zm-5.8.5l-2.8 1.6 2.4 1.4 2.8-1.6zm44.4-21.9l-2.7 1.6 2.4 1.4 2.8-1.6z"/><use xlink:href="#O" x="22.9" y="1.4"/><use xlink:href="#N" x="16" y="5.3"/><use xlink:href="#O" x="16" y="5.3"/><use xlink:href="#M" x="5.7" y="11.2"/><path d="M345.3 379.3l2.4 1.4 2.7-1.6-2.4-1.4zm-.7.4l-3.5 2-.6.3-6.3 3.6-2.1 1.3-4.1 2.3 2.5 1.4 4.2-2.4 2-1.2 2.1-1.2 1.3-.8 2.7-1.5.8-.4 3.4-2z"/><use xlink:href="#M" x="-18.4" y="25.1"/><path d="M321.2 393.2l2.4 1.4 2.7-1.6-2.4-1.4z"/><use xlink:href="#P"/></g><path d="M242 441.2l-.1-3.3v3l.1 3.3zm29.7 3.9l-3.9 2.2v3l3.9-2.2zm-45.8 2.2l-4-2.2v3l3.9 2.2zm8.4 10.4c0-.1.1-.2.1-.3s.1-.3.1-.4.1-.2.1-.3c.1-.1.1-.3.2-.4s.1-.2.2-.3.2-.3.3-.4.1-.2.2-.3c.2-.2.3-.4.5-.6l.2-.2c.1-.1.3-.2.4-.3s.2-.2.4-.3c.1-.1.3-.2.5-.3s.3-.2.5-.3l1.2-.6c.1-.1.2-.1.4-.2.3-.1.7-.3 1-.4.1 0 .2-.1.4-.1.2-.1.4-.1.7-.2.2 0 .3-.1.5-.1.2-.1.5-.1.7-.1s.3-.1.5-.1c.5-.1 1-.1 1.4-.2h.4c.3 0 .6 0 .9-.1h3c.2 0 .4 0 .6.1.2 0 .4.1.6.1s.4.1.7.1c.2 0 .4.1.5.1.3.1.5.1.8.2.1 0 .3.1.4.1.5.1.9.3 1.4.5l.6.3c.1 0 .2.1.3.1.3.2.6.3.9.5 2.5 1.4 3.7 3.3 3.7 5.2v-3c0-1.9-1.2-3.8-3.7-5.2-.3-.2-.6-.3-.9-.5-.1-.1-.2-.1-.3-.1-.2-.1-.4-.2-.6-.2h-.1c-.4-.2-.9-.3-1.4-.5h-.1c-.1 0-.2-.1-.3-.1-.3-.1-.5-.1-.8-.2-.1 0-.1 0-.2-.1-.1 0-.2 0-.3-.1-.2 0-.4-.1-.7-.1h-.6c-.2 0-.4-.1-.6-.1h-3c-.3 0-.6 0-.9.1h-.4c-.5.1-1 .1-1.4.2h-.1c-.1 0-.3.1-.4.1-.2 0-.5.1-.7.2-.2 0-.3.1-.5.1-.2.1-.4.1-.7.2h-.1c-.1 0-.1.1-.2.1-.3.1-.7.2-1 .4-.1.1-.2.1-.4.2l-1.2.6c-.1 0-.1.1-.2.1-.1.1-.2.1-.3.2-.2.1-.3.2-.5.3-.1.1-.2.2-.4.3-.1.1-.3.2-.4.3 0 0-.1 0-.1.1l-.1.1c-.2.2-.4.4-.5.6l-.2.2c-.1.1-.2.3-.3.4 0 .1-.1.1-.1.2v.1c-.1.1-.1.3-.2.4 0 .1-.1.2-.1.2v.1c0 .1-.1.3-.1.4s-.1.2-.1.3v3.5c-.2-.3-.1-.4-.1-.6zm37.4.6c-.1.2-.1.4-.2.5 0 .1-.1.2-.2.4-.1.1-.1.2-.2.3s-.1.2-.2.4c-.1.1-.1.2-.2.3s-.2.3-.3.4-.1.2-.2.3-.2.3-.3.4-.1.2-.2.3c-.2.3-.4.5-.7.8l-.8.8c-.2.2-.4.3-.6.5v3c.2-.1.3-.3.5-.4l.1-.1c.2-.2.4-.4.7-.6l.1-.1c.2-.3.5-.5.7-.8l.3-.3c.1-.1.2-.3.3-.4s.1-.2.2-.3.2-.3.3-.4l.1-.1c0-.1.1-.1.1-.2.1-.1.1-.2.2-.4.1-.1.1-.2.2-.3s.1-.2.2-.4c0-.1 0-.1.1-.2 0-.1.1-.3.1-.4h5.6v-3h-5.7zm-45.8 8.4v-3c-1.9-1.7-3.2-3.5-3.9-5.4h-5.6v3h5.6c.7 1.9 2 3.8 3.9 5.4zm35.2 1c-.7.3-1.4.5-2.1.7l-1.2.3-1.1.3-1.2.3c-.4.1-.8.2-1.1.2l-2.6.4v3l2.6-.4h.1c.3-.1.7-.1 1-.2l1.2-.3 1.1-.3 1.2-.3h.1c.7-.2 1.3-.4 1.9-.7l4 2.3 6.8-4v-3l-6.8 4-3.9-2.3zm-19 2.2l-1.8-.3c-.4-.1-.9-.1-1.3-.2s-.7-.1-1.1-.2c-.5-.1-1-.2-1.5-.4l-1.2-.3c-.2-.1-.3-.1-.5-.2-.7-.2-1.3-.4-2-.7l-3.9 2.3-6.9-4v3l6.9 4 3.9-2.3 2 .7c.2.1.3.1.5.2s.3.1.5.2.4.1.7.2c.5.1 1 .3 1.5.4.2 0 .3.1.5.1s.4.1.6.1c.4.1.9.2 1.3.2.2 0 .4.1.6.1.4.1.8.1 1.2.2h0v3.2h9.7v-3h-9.7v-3.3z" class="E"/><path d="M265 470l-4-2.3c-2.9 1.1-6 1.9-9.3 2.2v3.2H242v-3.2c-3.3-.4-6.5-1.1-9.3-2.2l-3.9 2.3-6.9-4 3.9-2.3c-1.9-1.7-3.2-3.5-3.9-5.4h-5.6v-5.6h5.6c.6-1.9 1.9-3.7 3.8-5.4l-4-2.3 6.8-4 4 2.3c2.9-1.1 6-1.9 9.3-2.2v-3.2h9.7v3.2c3.3.4 6.4 1.1 9.3 2.2l3.9-2.3 6.9 4-3.9 2.3c1.9 1.7 3.2 3.5 3.9 5.4h5.6v5.6h-5.6c-.6 1.9-1.9 3.7-3.8 5.4l4 2.3-6.8 4zm-27.1-9.3c5 2.9 13 2.9 17.9 0s4.9-7.5-.1-10.4-13-2.9-17.9 0c-4.8 2.9-4.8 7.6.1 10.4" class="C"/><path d="M191.4 435.2v-.2 2.7zm24.3 3.2l-3.2 1.9v2.4l3.2-1.8zm-37.5 1.9l-3.2-1.9v2.5l3.2 1.8zm6.9 8.5c0-.1 0-.2.1-.3 0-.1.1-.2.1-.3s.1-.2.1-.3.1-.2.2-.3c0-.1.1-.2.1-.2.1-.1.2-.2.2-.4l.2-.2c.1-.2.3-.3.4-.5l.5-.5c.1-.1.2-.2.3-.2.1-.1.2-.2.4-.2.1-.1.3-.2.4-.3.3-.2.6-.3 1-.5.1 0 .2-.1.3-.1l.8-.3c.1 0 .2-.1.3-.1.2-.1.4-.1.5-.2.1 0 .3-.1.4-.1.2 0 .4-.1.6-.1.1 0 .3-.1.4-.1.4-.1.8-.1 1.2-.2h3.6a.9.9 0 0 1 .5.1c.2 0 .3 0 .5.1.2 0 .4.1.5.1s.3.1.4.1c.2 0 .4.1.6.2.1 0 .2.1.4.1.4.1.8.2 1.1.4.2.1.4.1.5.2.1 0 .2.1.3.1.3.1.5.3.8.4 2 1.2 3.1 2.7 3.1 4.3v-2.4c0-1.5-1-3.1-3.1-4.3-.2-.1-.5-.3-.8-.4-.1 0-.2-.1-.3-.1-.2-.1-.3-.1-.5-.2h-.1c-.4-.1-.7-.3-1.1-.4h-.1c-.1 0-.2 0-.3-.1-.2-.1-.4-.1-.6-.2h-.5c-.2 0-.4-.1-.5-.1h-.4c-.2 0-.3 0-.5-.1h-3.6c-.4 0-.8.1-1.2.2h-.1c-.1 0-.2 0-.3.1-.2 0-.4.1-.6.1-.1 0-.3.1-.4.1-.2 0-.4.1-.5.2h-.1c-.1 0-.1 0-.2.1l-.8.3c-.1 0-.2.1-.3.1-.3.2-.7.3-1 .5 0 0-.1 0-.1.1-.1.1-.2.1-.3.2a.76.76 0 0 1-.4.2c-.1.1-.2.2-.3.2l-.5.5c-.2.2-.3.3-.4.5l-.1.1s0 .1-.1.1c-.1.1-.2.2-.2.4 0 .1-.1.1-.1.2v.1c-.1.1-.1.2-.2.3 0 .1-.1.1-.1.2v.1c0 .1-.1.2-.1.3s0 .1-.1.2v2.8c.1-.4.1-.5.1-.6zm30.6.5a.76.76 0 0 1-.2.4c0 .1-.1.2-.1.3s-.1.2-.1.3-.1.2-.2.3c0 .1-.1.2-.2.3s-.1.2-.2.3-.1.2-.2.2l-.3.3c-.1.1-.1.2-.2.2-.2.2-.3.4-.5.6l-.1.1c-.2.2-.3.4-.5.5-.1.1-.3.3-.5.4v2.4c.1-.1.3-.2.4-.3 0 0 0-.1.1-.1l.6-.6c.2-.2.4-.4.5-.6v-.1c0-.1.1-.1.1-.2l.3-.3c.1-.1.1-.2.2-.2.1-.1.1-.2.2-.3 0 0 0-.1.1-.1 0-.1.1-.1.1-.2.1-.1.1-.2.2-.3 0-.1.1-.2.1-.3s.1-.2.1-.3c0 0 0-.1.1-.1 0-.1.1-.2.1-.3h4.6v-2.4h-4.5zm-37.4 6.8v-2.5c-1.6-1.4-2.7-2.9-3.2-4.4h-4.6v2.4h4.6c.6 1.7 1.6 3.2 3.2 4.5zm28.7.8l-1.7.6-1 .3c-.3.1-.6.2-.9.2-.3.1-.7.1-1 .2s-.6.1-.9.2l-2.1.3v2.4l2.1-.3h.1c.3-.1.6-.1.8-.2.3-.1.7-.1 1-.2l.9-.3 1-.3h.1l1.6-.6 3.2 1.9 5.6-3.2v-2.4l-5.6 3.2-3.2-1.8zm-15.5 1.8c-.5-.1-1-.1-1.5-.2-.4-.1-.7-.1-1-.2s-.6-.1-.9-.2l-1.2-.3-1-.3c-.1 0-.3-.1-.4-.1l-1.6-.6-3.2 1.9-5.6-3.2v2.4l5.6 3.2 3.2-1.9 1.6.6c.1 0 .3.1.4.1s.3.1.4.1c.2 0 .4.1.5.1l1.2.3c.1 0 .3.1.4.1.2 0 .3.1.5.1.3.1.7.1 1 .2.2 0 .3.1.5.1.3 0 .7.1 1 .1h0v2.6h7.9v-2.4h-7.9l.1-2.5z" class="E"/><path d="M210.3 458.8l-3.2-1.9c-2.3.9-4.9 1.5-7.6 1.8v2.6h-7.9v-2.6c-2.7-.3-5.3-.9-7.6-1.8l-3.2 1.9-5.6-3.2 3.2-1.9c-1.6-1.4-2.7-2.9-3.2-4.4h-4.6v-4.6h4.6c.5-1.6 1.6-3 3.1-4.4l-3.2-1.9 5.6-3.2 3.2 1.9c2.3-.9 4.9-1.5 7.6-1.8v-2.6h7.9v2.6c2.7.3 5.3.9 7.6 1.8l3.2-1.9 5.6 3.2-3.2 1.9c1.6 1.4 2.7 2.9 3.2 4.4h4.6v4.6h-4.6c-.5 1.6-1.6 3.1-3.1 4.4l3.2 1.9-5.6 3.2zm-22.2-7.6c4.1 2.3 10.6 2.3 14.6 0s4-6.1 0-8.5c-4.1-2.3-10.6-2.3-14.6 0-4.1 2.4-4 6.2 0 8.5" class="C"/><path fill="#933e31" d="M367.8 467c4.9 0 3.3-3.6 3.3-3.6 7.2-2.2 10.8-1 10.8-1 1.8 6.4 1.1 10.2 1.1 11.7 0 .8-.5 1.2-1.2 1.5-3.9 1.4-7.4 2.4-14.6 1.7-5.3-.5-10.9-5.4-9.7-10.5.7-3.2 5.4.1 10.3.2z"/><path d="M369.9 421.3c1.4-1.9 3.9-3.4 7.9-2.4l43.5 8.4-1.6 11.2s-6.7 8.8-18.3 5.4c-11.7-3.3-19.2-8.8-19.2-8.8l1.5 30.8s-6.8 2.1-12.9-1.6c-1-.6-2-30.3-2.3-37.9-.2-2.1.1-3.5 1.4-5.1z" class="H"/><path d="M346.9 475.9c5 0 3.4-3.8 3.4-3.8 7.5-2.3 11.2-1 11.2-1 1.9 6.6 1.1 10.6 1.2 12.2 0 .8-.6 1.3-1.3 1.5-4 1.5-7.7 2.5-15.2 1.8-5.5-.5-11.4-5.7-10-10.9.8-3.3 5.6.1 10.7.2z" class="K"/><path d="M396.3 463.6l37.3-21.5v5.2l-37.3 21.5z" class="D"/><path d="M399.7 422.6l33.9 19.5-37.3 21.5-33.9-19.5z" class="C"/><path d="M362.4 444.1l33.9 19.5v5.2l-33.9-19.6z" class="E"/><path fill="#2a87c6" d="M349.1 428.4c1.5-1.9 4-3.6 8.2-2.5l45.1 8.7-1.7 11.6s-6.9 9.1-19 5.7c-12.1-3.5-20-9.1-20-9.1l1.5 32s-7.1 2.2-13.4-1.6c-1.1-.6-2-31.5-2.4-39.4.1-2.2.3-3.6 1.7-5.4z"/><ellipse transform="matrix(-.9952 .098161 -.098161 -.9952 825.1655 677.0507)" cx="395.9" cy="358.8" rx="11.2" ry="13.8" class="M"/><path d="M375.6 377.6l-3.6.7c-.9.1-4.4.8-5.9.4-1.4-.4 1.3-1.4 1.9-1.9.7-.5.6-1.7-.8-2.2-1.4-.4-4.7-.2-6.5-.5-1.7-.2 1.7-5.5 4.5-6s5.2-.2 7.7 1c2.4 1.2 3.7 3.2 4.8 3.6l-2.1 4.9z" class="I"/><path d="M375.3 370.4l18.3 4.6.9 11.6-21.6-7.4c-.4-4.1 2.4-8.8 2.4-8.8zm45.1 4.9s5.1 6.4 0 15.1c0 0-3.5 4.9-13.2.1l13.2-15.2z" fill="#0f4463"/><path d="M405.4 367.9s-7.9-.5-14.1 3.8c0 0-.5 1.3-1.7 2.1s-7.4 3.3-7.4 3.3 2.7 36-.4 53.5c0 0 13.3 10.4 34.1 0l4.4-55.2c.1-.1-3.4-4.3-14.9-7.5z" class="L"/><path d="M408.9 427.3l37.3-21.6-12.6 36.4-37.3 21.5z" class="D"/><path d="M442.1 403.3l4.1 2.4-37.3 21.6-4.2-2.4z" class="C"/><path d="M404.7 424.9l4.2 2.4-12.6 36.3-4.2-2.4z" class="E"/><path d="M351 393.5s-2-2.1-2.8-2.6c-.8-.6-3.5-3.2-5.1-3.5-1.5-.3 1.1 2.3 1.4 3.2.3.8-1.6-.7-3-1.2-1.5-.6-3.1-.5-4.9.2-3.5 1.3-3.4 8.3-.5 7.5 4.7-1.4 6.9 2.4 9.7 3.2 2 .5 2.8.5 4 .7l1.2-7.5z" class="I"/><path d="M382.3 377.1l-15.4 20.4-16-4.7s-3.4 4.3-2.3 8.9L370 410l17.4-19.1c-.1 0 5.7-12.1-5.1-13.8zm8.9-38.2s-1.2 2.8 4.5 3.6 12.7 3.6 14.5 9.6c1.2 3.8-.2 7.9-2.1 11.3-.7 1.1-1.4 2.3-2.3 3.3 0 0-3.8 1-8.4-1.4 0 0-2.8-1.9-4.5-5.5 0 0-3.4 1.4-4.4-1.4-.8-2.1-3.2-2.6-4.5-3.7.1-.1-7.6-12.6 7.2-15.8z" fill="#0f4463"/><path d="M310.1 403h-2.9v3.1h2.9c1.1 0 2 .9 2 2v5.1c0 1.1-.9 2-2 2h-4.2v3.1h4.2c2.8 0 5.1-2.3 5.1-5.1v-5.1c0-2.8-2.3-5.1-5.1-5.1z" class="E"/><path d="M309 401.3v17.6c0 2.7-4.1 4.9-9.1 4.9s-9.1-2.2-9.1-4.9v-17.6H309z" class="D"/><ellipse cx="299.9" cy="401.3" rx="9.1" ry="4.9" class="C"/><ellipse cx="299.9" cy="401.2" rx="7.3" ry="3.9" class="E"/><path d="M299.9 399.9c-3.2 0-5.9 1.1-6.9 2.6 1 1.5 3.7 2.6 6.9 2.6s5.9-1.1 6.9-2.6c-1-1.5-3.7-2.6-6.9-2.6z" class="K"/><path d="M303.4 405.8v17.6c1.8-.4 3.3-1.1 4.3-2v-17.6c-1.1.9-2.6 1.6-4.3 2z" class="E"/><path fill="#e8ebf5" d="M334.7 301.4l-77-44.7c-3.3-1.9-7.3-1.9-10.6 0l-121.4 70.2c-3.1 1.8-3.1 6.2 0 8l75.3 43.7c3.9 2.3 8.7 2.3 12.6 0l121.1-70.1c2.8-1.5 2.8-5.5 0-7.1z"/><path d="M334.7 308.6l-121.1 70.1c-3.9 2.2-8.7 2.2-12.6 0L125.7 335c-1.5-.9-2.3-2.4-2.3-4v5.9c0 1.5.8 3 2.3 3.9l75.3 43.7c3.9 2.3 8.7 2.3 12.6 0l121.1-70.1a4.11 4.11 0 0 0 2.1-3.6h0V305a4.11 4.11 0 0 1-2.1 3.6z" class="E"/><path d="M334.7 308.6l-121.1 70.1c-1.8 1-3.7 1.6-5.7 1.6v5.8c2-.1 4-.6 5.7-1.6l121.1-70.1a4.11 4.11 0 0 0 2.1-3.6h0V305a4.11 4.11 0 0 1-2.1 3.6z" class="D"/><path d="M260.8 302.7l-33-19.1a2.99 2.99 0 0 0-2.9 0L177 311.2a1.23 1.23 0 0 0 0 2.2l32.5 18.8c1.1.6 2.4.6 3.5 0l47.8-27.6a1.05 1.05 0 0 0 0-1.9z" class="C"/><g class="D"><path d="M260.8 304.7L213 332.3c-1.1.6-2.4.6-3.5 0L177 313.5c-.4-.2-.6-.7-.6-1.1v2.3c0 .4.2.9.6 1.1l32.5 18.8c1.1.6 2.4.6 3.5 0l47.8-27.6a1.1 1.1 0 0 0 .6-1h0v-2.3c0 .4-.2.7-.6 1z"/><use xlink:href="#L" x="-92" y="-76.7"/><path d="M235.8 297.3l-2.4-1.4-2.7 1.5 2.4 1.5z"/><use xlink:href="#L" x="-98.9" y="-72.8"/><use xlink:href="#J" x="-116.1" y="-62.8"/><use xlink:href="#L" x="-105.8" y="-68.8"/><use xlink:href="#J" x="-123" y="-58.8"/><use xlink:href="#K" x="-123" y="-58.8"/><path d="M215.2 309.2l-2.4-1.5-2.8 1.6 2.4 1.4zm-3.5 1.9l-2.4-1.4-2.7 1.6 2.4 1.4z"/><use xlink:href="#L" x="-123" y="-58.9"/><use xlink:href="#J" x="-140.2" y="-48.9"/><use xlink:href="#L" x="-129.9" y="-54.9"/><path d="M195.5 317.7l-2.7 1.5 2.4 1.5 2.8-1.6zm44.2-19l2.7-1.6-2.4-1.4-2.8 1.6z"/><use xlink:href="#M" x="-109.2" y="-66.8"/><path d="M230.4 301.2l2.4 1.5 2.7-1.6-2.4-1.4z"/><use xlink:href="#M" x="-116.1" y="-62.9"/><use xlink:href="#N" x="-116.1" y="-62.8"/><use xlink:href="#M" x="-123" y="-58.9"/><use xlink:href="#N" x="-123" y="-58.8"/><use xlink:href="#O" x="-123" y="-58.8"/><path d="M209.7 313.1l2.4 1.4 2.8-1.5-2.4-1.5zm-3.4 2l2.4 1.4 2.7-1.6-2.4-1.4z"/><use xlink:href="#M" x="-140.2" y="-49"/><use xlink:href="#N" x="-140.2" y="-48.9"/><path d="M198.7 319.5l-2.8 1.6 2.4 1.4 2.8-1.6zm44.1-19l2.8-1.6-2.5-1.4-2.7 1.6z"/><use xlink:href="#O" x="-99.2" y="-68.9"/><use xlink:href="#L" x="-92.6" y="-69.1"/><path d="M230.1 305.1l2.4 1.4 2.7-1.6-2.4-1.4zm-3.5 1.9l2.4 1.4 2.8-1.5-2.4-1.5z"/><use xlink:href="#N" x="-116.4" y="-59"/><use xlink:href="#M" x="-123.3" y="-55.1"/><use xlink:href="#N" x="-123.3" y="-55"/><use xlink:href="#O" x="-123.3" y="-55"/><path d="M209.4 316.9l2.4 1.4 2.8-1.5-2.4-1.4zm-3.4 2l2.4 1.4 2.7-1.6-2.4-1.4z"/><use xlink:href="#L" x="-123.6" y="-51.3"/><path d="M201.8 321.3l-2.7 1.6 2.4 1.4 2.8-1.6zm44.1-19l2.8-1.6-2.4-1.4-2.8 1.6z"/><use xlink:href="#J" x="-99.8" y="-61.3"/><use xlink:href="#K" x="-99.8" y="-61.3"/><use xlink:href="#L" x="-92.9" y="-65.3"/><path d="M234.9 308.7l-2.4-1.4-2.7 1.6 2.4 1.4zm-3.4 2l-2.4-1.5-2.8 1.6 2.4 1.4z"/><use xlink:href="#J" x="-117" y="-51.4"/><use xlink:href="#L" x="-106.7" y="-57.4"/><use xlink:href="#J" x="-123.9" y="-47.4"/><use xlink:href="#K" x="-123.9" y="-47.4"/><path d="M214.3 320.6l-2.4-1.4-2.8 1.5 2.4 1.4zm-3.5 1.9l-2.4-1.4-2.7 1.6 2.4 1.4zm-5.8.6l-2.8 1.6 2.4 1.4 2.8-1.6zm44.1-18.9l2.8-1.6-2.5-1.4-2.7 1.5z"/><use xlink:href="#L" x="-82.9" y="-67.5"/><use xlink:href="#J" x="-100.1" y="-57.5"/><use xlink:href="#K" x="-100.1" y="-57.5"/><use xlink:href="#L" x="-93.2" y="-61.5"/><path d="M234.6 312.5l-2.4-1.4-2.7 1.6 2.4 1.4zm-3.4 2l-2.4-1.5-2.8 1.6 2.4 1.4z"/><use xlink:href="#J" x="-117.3" y="-47.6"/><use xlink:href="#L" x="-107" y="-53.6"/><use xlink:href="#J" x="-124.2" y="-43.6"/><path d="M217.4 322.4L215 321l-2.8 1.6 2.5 1.4zm-3.4 2l-2.4-1.4-2.8 1.5 2.4 1.5zm-5.9.5l-2.7 1.6 2.4 1.4 2.7-1.6zm44.5-21.9l-2.8 1.6 2.4 1.4 2.8-1.6zm-6.2 3.5l2.4 1.5 2.8-1.6-2.5-1.4z"/><use xlink:href="#M" x="-100.1" y="-57.6"/><use xlink:href="#N" x="-100.1" y="-57.5"/><use xlink:href="#O" x="-100.1" y="-57.5"/><use xlink:href="#M" x="-110.4" y="-51.6"/><path d="M231.9 314.9l-3.4 1.9-4.9 2.8-2 1.2-2.2 1.3-4 2.3 2.4 1.4 4.2-2.4 2-1.2 3.5-2 2.7-1.5.7-.4 3.4-2z"/><use xlink:href="#O" x="-124.2" y="-43.6"/><path d="M208.5 328.3l2.4 1.5 2.8-1.6-2.4-1.4z"/><use xlink:href="#P" x="-144" y="-84.4"/></g><path d="M218.3 286.5l2.6 3.8c.7.9 3.2 4.6 4.9 5.5 1.6.9 0-2.2-.2-3.2s.9-1.9 2.5-1 3.1 3.4 4.9 4.7c1.7 1.3 3.5-5.1 1.4-8s-4.2-4.1-7.4-5.3c-3.1-1.2-5.7-.6-7-1.3l-1.7 4.8z" class="I"/><path d="M195.8 259.3l-2.2-17.1 12.6 24.2 18 15.5-6.4 7.1-20.1-14.8-1.4-2.1c0-5 0-9.7-.5-12.8z" class="H"/><path d="M189.1 297l3.9 1.1c.9.4 4.7 1.4 5.9 2.6 1.1 1.2-2 .8-2.9 1s1 1.3 2.1 2.5c1.2 1.2 1.8 2.2 2.2 4.7.2 1.9-6.3 5.6-7.5 2.7-1.2-2.8-1.2-2.8-3.7-4.6-2.9-2.1-4.4-4.4-5.3-5.3l5.3-4.7z" class="I"/><path d="M161.3 245.4s-6.2 1.4-6.8 11.2l5.1 20.4c.5 3.2 1.3 5.8 3 7.2l20.9 19.3 7.4-6.5-20.2-19.8-4.5-21.4c0 .1.5-8.3-4.9-10.4z" class="H"/><path d="M210.3 289.9l49-28.3c.3-.2.6-.2 1 0h0l1.3.7-1 1.3-.4.4v39.1c0 .6-.3 1.1-.8 1.4l-46.6 26.9-.1.4-1.5 2.1-1.4-.8c-.2-.1-.3-.4-.3-.6v-41.2c-.1-.5.3-1.1.8-1.4z" class="E"/><path d="M211.7 290.7l49.2-28.4c.5-.3 1.1.1 1.1.6v41.3c0 .6-.3 1.1-.8 1.4L211.9 334c-.5.3-1.1-.1-1.1-.6v-41.2c0-.6.3-1.2.9-1.5z" class="D"/><path d="M146.3 329l30 17 19.1-11-30-17z" class="G"/><path fill="#ffbd59" d="M146.3 336.8l30 17 19.1-11.1-30-16.9z"/><path d="M284.2 283.2v-.1 1.9zm18.2 2.4L300 287v1.8l2.4-1.4zm-28 1.4l-2.5-1.4v1.8l2.5 1.4zm5.1 6.3v-.2c0-.1 0-.2.1-.2 0-.1.1-.1.1-.2s.1-.2.1-.2c0-.1.1-.1.1-.2.1-.1.1-.2.2-.3 0-.1.1-.1.1-.2.1-.1.2-.2.3-.4l.1-.1c.1-.1.2-.1.2-.2l.2-.2c.1-.1.2-.1.3-.2s.2-.1.3-.2c.2-.1.5-.3.7-.4.1 0 .1-.1.2-.1.2-.1.4-.2.6-.2.1 0 .1-.1.2-.1s.3-.1.4-.1.2-.1.3-.1.3-.1.4-.1.2 0 .3-.1c.3-.1.6-.1.9-.1h3.4c.1 0 .3 0 .4.1.1 0 .2 0 .3.1.2 0 .3.1.5.1.1 0 .2 0 .3.1l.8.3c.1.1.3.1.4.2.1 0 .1.1.2.1l.6.3c1.5.9 2.3 2 2.3 3.2v-1.8c0-1.2-.8-2.3-2.3-3.2l-.6-.3c-.1 0-.1-.1-.2-.1-.1-.1-.2-.1-.3-.2l-.8-.3h-.3c-.2 0-.3-.1-.5-.1h-.3c-.1 0-.3 0-.4-.1h-3.5c-.3 0-.6.1-.9.1-.1 0-.2 0-.2.1-.1 0-.3.1-.4.1s-.2.1-.3.1-.3.1-.4.1h-.1s-.1 0-.1.1c-.2.1-.4.1-.6.2-.1 0-.1.1-.2.1-.3.1-.5.2-.7.4 0 0-.1 0-.1.1-.1 0-.1.1-.2.1-.1.1-.2.1-.3.2l-.2.2c-.1.1-.2.1-.2.2l-.1.1a1.38 1.38 0 0 0-.3.4l-.1.1s0 .1-.1.1c-.1.1-.1.2-.2.3l-.1.1v.1c0 .1-.1.2-.1.2s0 .1-.1.1c0 .1 0 .2-.1.2v1.9zm22.9.4c0 .1-.1.2-.1.3s-.1.1-.1.2-.1.1-.1.2-.1.1-.1.2-.1.1-.1.2-.1.2-.2.3c0 .1-.1.1-.1.2-.1.1-.1.2-.2.3 0 .1-.1.1-.1.2-.1.2-.3.3-.4.5l-.8.8v1.8l.9-.9c.1-.2.3-.3.4-.5l.1-.1c.1-.1.1-.2.2-.3 0-.1.1-.1.1-.2.1-.1.1-.2.2-.3 0 0 0-.1.1-.1 0 0 0-.1.1-.1 0-.1.1-.1.1-.2s.1-.1.1-.2.1-.1.1-.2v-.1c0-.1.1-.2.1-.2h3.4v-1.8h-3.6zm-28 5.1V297c-1.2-1-2-2.1-2.4-3.3h-3.4v1.8h3.4c.4 1.2 1.2 2.3 2.4 3.3zm21.5.6c-.4.2-.8.3-1.3.4-.2.1-.5.1-.7.2s-.4.1-.7.2c-.2.1-.5.1-.7.2-.2 0-.5.1-.7.1-.5.1-1 .2-1.6.2v1.8c.5-.1 1.1-.1 1.6-.2h.1c.2 0 .4-.1.6-.1.2-.1.5-.1.7-.2s.5-.1.7-.2.5-.1.7-.2h.1c.4-.1.8-.3 1.2-.4l2.4 1.4 4.2-2.4v-1.8l-4.2 2.4-2.4-1.4zm-11.6 1.4c-.4 0-.7-.1-1.1-.2-.3 0-.5-.1-.8-.1-.2 0-.5-.1-.7-.1-.3-.1-.6-.1-.9-.2-.2-.1-.5-.1-.7-.2-.1 0-.2-.1-.3-.1-.4-.1-.8-.3-1.2-.4l-2.4 1.4-4.2-2.4v1.8l4.2 2.4 2.4-1.4c.4.2.8.3 1.2.4.1 0 .2.1.3.1s.2.1.3.1.3.1.4.1c.3.1.6.2.9.2.1 0 .2.1.3.1s.3 0 .4.1c.3 0 .5.1.8.1.1 0 .2 0 .4.1.2 0 .5.1.7.1h0v2h5.9v-1.8h-5.9v-2.1z" class="E"/><path d="M298.3 300.8l-2.4-1.4c-1.7.7-3.7 1.1-5.7 1.4v2h-5.9v-2c-2-.2-3.9-.7-5.7-1.4l-2.4 1.4-4.2-2.4 2.4-1.4c-1.2-1-2-2.1-2.4-3.3h-3.4v-3.4h3.4c.4-1.2 1.2-2.3 2.3-3.3l-2.4-1.4 4.2-2.4 2.4 1.4c1.7-.7 3.7-1.1 5.7-1.4v-2h5.9v2c2 .2 3.9.7 5.7 1.4l2.4-1.4 4.2 2.4-2.4 1.4c1.2 1 2 2.1 2.4 3.3h3.4v3.4h-3.4c-.4 1.2-1.2 2.3-2.3 3.3l2.4 1.4-4.2 2.4zm-16.6-5.6c3 1.7 7.9 1.7 10.9 0s3-4.6 0-6.3-7.9-1.7-10.9 0-3 4.5 0 6.3" class="C"/><path d="M291.4 303.6v-.1 1.6zm14.9 2l-2 1.1v1.5l2-1.1zm-22.9 1.1l-2-1.1v1.5l2 1.1zm4.2 5.2v-.2c0-.1 0-.1.1-.2 0-.1 0-.1.1-.2 0-.1.1-.1.1-.2l.1-.1c0-.1.1-.1.1-.2l.7-.7c.1 0 .1-.1.2-.1.1-.1.2-.1.2-.2.1-.1.2-.1.2-.2l.6-.3c.1 0 .1-.1.2-.1.2-.1.3-.1.5-.2.1 0 .1 0 .2-.1.1 0 .2-.1.3-.1s.2 0 .2-.1c.1 0 .2-.1.3-.1h.2c.2 0 .5-.1.7-.1h2.7c.1 0 .2 0 .3.1.1 0 .2 0 .3.1.1 0 .3.1.4.1s.1 0 .2.1c.2.1.5.1.7.2.1 0 .2.1.3.1s.1 0 .2.1c.2.1.3.2.5.2 1.2.7 1.9 1.7 1.9 2.6v-1.5c0-.9-.6-1.9-1.9-2.6-.1-.1-.3-.2-.5-.2-.1 0-.1 0-.2-.1-.1 0-.2-.1-.3-.1-.2-.1-.4-.2-.7-.2h-.3c-.1 0-.3-.1-.4-.1h-.3c-.1 0-.2 0-.3-.1h-2.7c-.2 0-.5.1-.7.1h-.2c-.1 0-.2 0-.4.1-.1 0-.2 0-.2.1-.1 0-.2.1-.3.1h-.2c-.2.1-.3.1-.5.2-.1 0-.1.1-.2.1l-.6.3h-.1c-.1 0-.1.1-.2.1-.1.1-.2.1-.2.2-.1 0-.1.1-.2.1l-.7.7v.1c-.1.1-.1.1-.1.2 0 0 0 .1-.1.1 0 .1-.1.1-.1.2 0 0 0 .1-.1.1 0 .1 0 .1-.1.2v1.8c.3 0 .3 0 .3-.1zm18.7.3c0 .1-.1.2-.1.3s0 .1-.1.2c0 .1-.1.1-.1.2s-.1.1-.1.2-.1.1-.1.2-.1.1-.1.2-.1.1-.1.2-.1.1-.2.2l-.1.1c-.1.1-.2.3-.3.4v.1l-.6.6v1.5c.1-.1.2-.1.2-.2l.4-.4c.1-.1.2-.3.3-.4l.3-.3c0-.1.1-.1.1-.2s.1-.1.1-.2v-.1s0-.1.1-.1c0-.1.1-.1.1-.2s.1-.1.1-.2.1-.1.1-.2v-.1c0-.1 0-.1.1-.2h2.8v-1.5h-2.8zm-22.8 4.2v-1.5c-1-.8-1.6-1.7-1.9-2.7h-2.8v1.5h2.8c.2.9.9 1.8 1.9 2.7zm17.5.4c-.3.1-.7.3-1 .4-.2.1-.4.1-.6.2s-.4.1-.6.2c-.2 0-.4.1-.6.1s-.4.1-.6.1c-.4.1-.8.1-1.3.2v1.5c.4 0 .9-.1 1.3-.2h.1c.2 0 .3-.1.5-.1s.4-.1.6-.1.4-.1.6-.2.4-.1.6-.2h.1l1-.3 2 1.1 3.4-2V316l-3.4 2-2.1-1.2zm-9.5 1.2c-.3 0-.6-.1-.9-.1-.2 0-.4-.1-.6-.1s-.4-.1-.6-.1c-.3-.1-.5-.1-.7-.2s-.4-.1-.6-.2c-.1 0-.2-.1-.3-.1l-1-.3-2 1.1-3.4-2v1.5l3.4 2 2-1.1 1 .3c.1 0 .2.1.3.1s.2.1.3.1.2.1.3.1c.2.1.5.1.7.2.1 0 .2 0 .2.1.1 0 .2 0 .3.1.2 0 .4.1.6.1.1 0 .2 0 .3.1.2 0 .4.1.6.1h0v1.6h4.8v-1.5h-4.8l.1-1.8z" class="E"/><path d="M303 318l-2-1.1c-1.4.6-3 .9-4.6 1.1v1.6h-4.8V318c-1.6-.2-3.2-.6-4.6-1.1l-2 1.1-3.4-2 2-1.1c-1-.8-1.6-1.7-1.9-2.7h-2.8v-2.8h2.8c.3-.9.9-1.9 1.9-2.7l-2-1.1 3.4-2 2 1.1c1.4-.6 3-.9 4.6-1.1V302h4.8v1.6c1.6.2 3.2.6 4.6 1.1l2-1.1 3.4 2-2 1.1c1 .8 1.6 1.7 1.9 2.7h2.8v2.8h-2.8c-.3.9-.9 1.9-1.9 2.7l2 1.1-3.4 2zm-13.6-4.6c2.5 1.4 6.5 1.4 8.9 0 2.5-1.4 2.4-3.7 0-5.2-2.5-1.4-6.5-1.4-8.9 0s-2.4 3.7 0 5.2" class="C"/><path d="M141.7 309l-2.7-2.9c-.6-.8-3.3-3.6-3.6-5.2-.4-1.6 2.1.3 2.9.7.9.3 2.1-.4 1.7-2s-2.4-4.5-3.1-6.2 6.4-1.6 8.4.7 3.1 4.7 3.2 7.7c.1 2.9-1.1 5.3-.9 6.5l-5.9.7z" class="I"/><path d="M148.7 305.8l-9.6 1.4 1.3 15.8 14.2 12.8c.1.1-.5-14.9-5.9-30z" class="C"/><path fill="#933e31" d="M115.9 448.2s-.8 3.8 4.3 4.4c5.1.7 7.4.6 7.8 4s-1 4.9-6.7 5.2c-4.9.3-13.2-.8-17.8-2.1-.8-.2-1.4-.6-1.5-1.4-.1-1.7.6-6.2 1.9-9.3 1.9-4.4 12-.8 12-.8z"/><path d="M135.8 452.7s-.4 1.2 4.8 1.5 10.6.3 11.4 3.7c.7 3.4-3.3 6.1-8.9 6.8-4.8.7-14.6 1.1-18.4 1.3-.8 0-1.5-.5-1.6-1.3-.2-1.7-.5-4.6-.3-7.8.3-4.9 13-4.2 13-4.2z" class="K"/><path fill="#1b4e6b" d="M108.9 366.8l-1.8 46.5c-.4 5-4.2 36.5-4.2 36.5s8.7 4.4 15.4 1.4l7.5-79.7-16.9-4.7z"/><path fill="#1f5e77" d="M121 369.4l2 40.8-.9 47c9.9 1.1 16.2-4.3 16.2-4.3-.6-5.4 0-38.3 0-38.3 2-15.9 1-41.5 1.2-46.2v-.8l-18.5 1.8z"/><path d="M102.9 308.2s-5 19.5-3.7 29.9c0 0 3.7 5.4 10.5 4.8l-6.8-34.7z" class="C"/><ellipse transform="matrix(1 .002623 -.002623 1 .7609 -.3302)" cx="126.3" cy="289.9" rx="11.2" ry="13.8" class="M"/><path d="M145 311.1s-9.4-3.6-10.6-4.4c-1.3-.8-1.7-2.2-1.7-2.2-6.3-4.4-14.4-3.9-14.4-3.9-11.8 3.2-15.3 7.6-15.3 7.6 1.2 10.1 3.8 49.7 4.4 58.5.1 1.1.7 2 1.7 2.5 14.5 6.7 25.3 3.5 30.3 1.1 1.9-.9 2.9-2.9 2.7-5-2.3-19 2.9-54.2 2.9-54.2z" class="K"/><path d="M130.3 275.5s8.7 1.7 8.8 9l-8.1 2.7s1.3 6.2-3.3 7.8c0 0-1.3 5.6-9.6 5.1 0 0-12.5-16.2 2.8-23.9 0-.1 4.2-1.6 9.4-.7z" class="L"/><path d="M145.3 311.1c-8.5 0-5.1 18.3-5.1 18.3l2.9 12.8c.4 1.7 2.1 2.7 3.9 2.5 6.9-1 7.7-7.2 7.7-7.2-.1-16.9-9.4-26.4-9.4-26.4zm-12.6-6.6c-6.3-4.4-14.4-3.9-14.4-3.9-1.8.5-3.5 1-4.9 1.6 7.1 0 16.6 2.6 20.2 3.7-.7-.7-.9-1.4-.9-1.4zm344.9-109.6l-188.9-109c-1.2-.7-2.5-.6-3.8.2h0l-4.2 2.4 3.9 5.2 1.4 1.6v119.4a6.3 6.3 0 0 0 3.1 5.4l179.4 103.5.3 1.6 5.8 8.1 4.8-2.8h.1c.8-.5 1.4-1.4 1.4-2.4V200.6c-.1-2.4-1.3-4.6-3.3-5.7z" class="C"/><linearGradient id="D" gradientUnits="userSpaceOnUse" x1="372.473" y1="317.189" x2="385.721" y2="46.047"><stop offset="0" stop-color="#1c75bc"/><stop offset=".279" stop-color="#2077bc"/><stop offset=".541" stop-color="#2b7ebc"/><stop offset=".796" stop-color="#3e88bc"/><stop offset="1" stop-color="#5394bc"/></linearGradient><path fill="url(#D)" d="M472.8 197.6L283.5 88.4c-1.9-1.1-4.2.3-4.2 2.4v127.7a6.3 6.3 0 0 0 3.1 5.4l189.3 109.2c1.9 1.1 4.3-.3 4.3-2.5V203.1c0-2.2-1.2-4.3-3.2-5.5z"/><path d="M279.3 90.9v127.7a6.3 6.3 0 0 0 3.1 5.4l189.3 109.2c.5.3 1 .4 1.4.4 1.5 0 2.9-1.2 2.9-2.9V203.2c0-2.3-1.2-4.4-3.2-5.6L283.5 88.4c-.5-.3-.9-.4-1.4-.4h0c-1.5.1-2.8 1.2-2.8 2.9zm2.7 0v-.1l.1.1L471.5 200c1.1.7 1.9 1.9 1.9 3.2v127.3c0 .1-.1.1-.1.1L283.8 221.4c-1.1-.6-1.8-1.8-1.8-3V90.9z" class="D"/><path fill="#ed1c24" d="M282.1 88.1h0z"/><path d="M474.6 333.2h0z" class="D"/><path d="M476 330.7V203.2c0-.8-.2-1.5-.4-2.2l4.8-2.7c.2.7.4 1.4.4 2.1v127.5c0 1.1-.6 1.9-1.4 2.4h0-.1l-4.7 2.7c.9-.3 1.4-1.2 1.4-2.3z" class="E"/><path d="M299.5 107.6v2.6l10.9 6.4V114z" class="J"/><g class="B"><use xlink:href="#Q"/><use xlink:href="#Q" y="4.8"/><path d="M382.2 172.3v-2.6l-67.6-39.1v2.7zm-82.7-50.4v2.7l10.9 6.3v-2.6zm0 4.8v2.6l10.9 6.4V133z"/></g><path d="M382.2 177.1v-2.6l-67.6-39.1v2.6z" class="F"/><path d="M299.5 141v2.6l10.9 6.4v-2.7z" class="B"/><use xlink:href="#Q" y="33.4" class="J"/><g class="B"><use xlink:href="#Q" y="52.5"/><path d="M299.5 169.6v2.6l10.9 6.4V176z"/></g><path d="M357.3 203l-42.7-24.7v2.6l42.7 24.7z" class="F"/><path d="M359.5 204.3v2.6l22.7 13.1v-2.6zM336 185.9l-21.4-12.3v2.6l21.4 12.4zm2.3 1.3v2.7l43.9 25.3v-2.6zm38.1 7.8v2.6l5.8 3.3v-2.6z" class="B"/><path d="M345 172l-30.4-17.5v2.6l30.4 17.5z" class="G"/><path d="M332.5 126.7l-17.9-10.4v2.6l17.9 10.4zm29.4 17L334.8 128v2.6l27.1 15.7zm-15.8-4.4l-19.1-11v2.6l19.1 11z" class="B"/><path d="M366.2 150.9l-17.9-10.3v2.6l17.9 10.3z" class="G"/><path d="M368.4 152.2v2.6l13.8 8v-2.7z" class="B"/><path d="M318.1 127.9v2.6l14.4 8.3v-2.6z" class="G"/><path d="M376.6 161.7l-41.8-24.2v2.6l41.8 24.2zm-24 .5l-27.3-15.8v2.6l27.3 15.8zm24 13.8l-21.7-12.5v2.6l21.7 12.5zm-2.4 12.9l-27-15.6v2.6l27 15.6z" class="B"/><path d="M359.5 185.2v2.6l14.7 8.5v-2.6z" class="F"/><path d="M319.8 162.3l-5.2-3v2.6l5.2 3zm10 5.7v2.6l27.5 15.9v-2.6zm-2.3-1.3l-5.4-3.1v2.6l5.4 3.1zm24.7 19l-30.1-17.3v2.6l30.1 17.3z" class="B"/><path d="M299.5 183.7v2.6l10.9 6.3V190z" class="J"/><g class="B"><use xlink:href="#Q" y="76.1"/><path d="M299.5 193.2v2.6l10.9 6.4v-2.7zm82.7 55.1v-2.6l-67.6-39v2.6z"/><use xlink:href="#Q" y="85.6"/><use xlink:href="#Q" y="90.4"/></g><path d="M382.2 253.1v-2.6l-67.6-39v2.6z" class="F"/><use xlink:href="#Q" y="104.7" class="B"/><path d="M299.5 221.8v2.6l10.9 6.4v-2.6z" class="J"/><path d="M345 248.1l-30.4-17.6v2.6l30.4 17.6z" class="G"/><path d="M332.5 202.7l-17.9-10.3v2.6l17.9 10.4zm29.4 17L334.8 204v2.6l27.1 15.7zm-15.8-4.4l-19.1-11v2.6l19.1 11.1z" class="B"/><path d="M366.2 226.9l-17.9-10.3v2.7l17.9 10.2z" class="G"/><path d="M368.4 228.2v2.6l13.8 8v-2.6z" class="B"/><path d="M318.1 204v2.6l14.4 8.3v-2.6z" class="G"/><path d="M376.6 237.7l-41.8-24.1v2.6l41.8 24.1zm-24 .5l-27.3-15.8v2.6l27.3 15.8zm24 13.8l-21.7-12.5v2.6l21.7 12.5zm-2.4 12.9l-27-15.5v2.6l27 15.6z" class="B"/><g class="F"><use xlink:href="#R"/><path d="M433.1 186.5v1.1l4.4 2.5V189z"/><use xlink:href="#R" y="3.8"/><path d="M466 210.3v-1l-26.9-15.5v1z"/><use xlink:href="#R" y="5.7"/><path d="M433.1 192.2v1l4.4 2.6v-1.1zm32.9 20v-1l-26.9-15.5v1z"/><use xlink:href="#S"/><use xlink:href="#S" y="1.9"/><use xlink:href="#S" y="9.5"/><use xlink:href="#S" y="11.4"/><path d="M456.1 222.5l-17-9.8v1l17 9.8zm.9.5v1l9 5.3v-1.1zm-9.4-7.3l-8.5-4.9v1.1l8.5 4.9zm.9.5v1.1l17.5 10.1v-1.1zm15.2 3.1v1.1l2.3 1.3v-1.1zm-12.5-9.1l-12.1-7v1.1l12.1 6.9zm-5-18l-7.1-4.1v1l7.1 4.1zm11.7 6.7l-10.8-6.2v1.1l10.8 6.2zm-6.3-1.7l-7.6-4.4v1.1l7.6 4.3zm8 4.6l-7.1-4.1v1.1l7.1 4zm.9.5v1.1l5.5 3.1v-1zm-20-9.6v1l5.7 3.3v-1zm23.2 13.4l-16.6-9.6v1l16.6 9.6zm-9.5.2l-10.8-6.3v1.1l10.8 6.2zm9.5 5.5l-8.6-5v1l8.6 5zm-.9 5.1l-10.7-6.2v1.1l10.7 6.1zm-5.8-1.5v1.1l5.8 3.3v-1zm-15.8-9.1l-2.1-1.2v1.1l2.1 1.2zm3.9 2.3v1.1l11 6.3v-1.1zm-.8-.5l-2.2-1.2v1l2.2 1.2zm9.7 7.5l-11.9-6.8v1l11.9 6.9z"/></g><g class="B"><use xlink:href="#S" y="18.8"/><use xlink:href="#S" y="20.7"/><use xlink:href="#S" y="22.6"/><path d="M466 242.4v-1.1l-26.9-15.5v1.1z"/><use xlink:href="#S" y="24.5"/><use xlink:href="#S" y="26.4"/><path d="M466 244.3v-1.1l-26.9-15.5v1.1zm-32.9-14.4v1.1l4.4 2.5v-1z"/><use xlink:href="#R" y="47.2"/><path d="M433.1 239.4v1l4.4 2.6v-1.1zm0 1.9v1l4.4 2.6v-1.1zm23 13.2l-17-9.7v1l17 9.8zm.9.6v1l9 5.2v-1zm-9.4-7.3l-8.5-4.9v1l8.5 4.9zm.9.5v1l17.5 10.1v-1zm15.2 3.1v1l2.3 1.3v-1zm-12.5-9.1l-12.1-7v1l12.1 7zm-5-18l-7.1-4.2v1.1l7.1 4.1zm11.7 6.7l-10.8-6.2v1l10.8 6.2zm-6.3-1.7l-7.6-4.4v1l7.6 4.4zm8 4.6l-7.1-4.1v1l7.1 4.1zm.9.5v1l5.5 3.2v-1.1zm-20-9.7v1.1l5.7 3.3V228zm23.2 13.4l-16.6-9.5v1l16.6 9.6zm-9.5.2l-10.8-6.2v1l10.8 6.3zm9.5 5.5l-8.6-5v1.1l8.6 5zm-.9 5.2l-10.7-6.2v1l10.7 6.2zm-5.8-1.5v1l5.8 3.4v-1.1zm-15.8-9.1l-2.1-1.2v1l2.1 1.2zm3.9 2.3v1l11 6.3v-1zm-.8-.5l-2.2-1.3v1l2.2 1.3zm9.7 7.5l-11.9-6.9v1l11.9 6.9z"/></g><g class="J"><use xlink:href="#R" y="64.1"/><use xlink:href="#R" y="66"/><path d="M433.1 252.5v1.1l4.4 2.5V255zm32.9 21.9v-1l-26.9-15.5v1zm-32.9-20v1l4.4 2.6v-1.1zm0 1.9v1l4.4 2.6v-1.1zm32.9 20v-1l-26.9-15.5v1z"/><use xlink:href="#S" y="64.1"/><use xlink:href="#S" y="66"/><use xlink:href="#S" y="73.6"/><use xlink:href="#S" y="75.5"/><path d="M456.1 286.6l-17-9.8v1l17 9.8zm.9.5v1l9 5.2v-1zm-9.4-7.3l-8.5-4.9v1l8.5 5zm.9.5v1.1l17.5 10.1v-1.1zm15.2 3.1v1l2.3 1.4v-1.1zm-12.5-9.1l-12.1-7v1.1l12.1 6.9zm-5-18l-7.1-4.1v1l7.1 4.1zm11.7 6.7l-10.8-6.2v1l10.8 6.3zm-6.3-1.7l-7.6-4.4v1.1l7.6 4.3zm8 4.6l-7.1-4.1v1.1l7.1 4zm.9.5v1.1l5.5 3.1v-1zm-20-9.6v1l5.7 3.3v-1zm23.2 13.4l-16.6-9.6v1l16.6 9.6zm-9.5.2l-10.8-6.3v1.1l10.8 6.2zm9.5 5.5l-8.6-5v1l8.6 5zm-.9 5.1l-10.7-6.2v1.1l10.7 6.1zm-5.8-1.5v1.1l5.8 3.3v-1zm-15.8-9.1l-2.1-1.2v1.1l2.1 1.2zm3.9 2.3v1l11 6.3v-1zm-.8-.5l-2.2-1.2v1l2.2 1.2zm9.7 7.5l-11.9-6.8v1l11.9 6.9z"/></g><g class="B"><use xlink:href="#S" y="82.9"/><use xlink:href="#S" y="84.8"/><use xlink:href="#S" y="86.7"/><path d="M466 306.5v-1.1l-26.9-15.5v1z"/><use xlink:href="#S" y="88.6"/><use xlink:href="#S" y="90.5"/><path d="M466 308.3v-1l-26.9-15.5v1z"/><use xlink:href="#R" y="109.4"/><use xlink:href="#R" y="111.3"/><path d="M463.7 315.5v1l2.3 1.3v-1zm-12.5-9.2l-12.1-6.9v1l12.1 7zm-5-18l-7.1-4.1v1.1l7.1 4.1zm11.7 6.8l-10.8-6.2v1l10.8 6.2zm-6.3-1.8L444 289v1l7.6 4.4zm8 4.6l-7.1-4v1l7.1 4.1zm.9.6v1l5.5 3.2v-1.1zm-20-9.7v1.1l5.7 3.3v-1.1zm23.2 13.4l-16.6-9.6v1.1l16.6 9.6zm-9.5.2l-10.8-6.2v1l10.8 6.3zm9.5 5.5l-8.6-5v1.1l8.6 4.9zm-.9 5.1l-10.7-6.1v1l10.7 6.2zm-5.8-1.4v1l5.8 3.4v-1.1zm-15.8-9.1l-2.1-1.2v1l2.1 1.2zm3.9 2.3v1l11 6.3v-1zm-.8-.6l-2.2-1.2v1l2.2 1.3zm9.7 7.6l-11.9-6.9v1l11.9 6.9z"/></g><g class="F"><use xlink:href="#T"/><use xlink:href="#T" y="6.5"/><path d="M292.4 116.5l-3.6-2.1c-.2-.1-.4 0-.4.2v4.3a.55.55 0 0 0 .3.5l3.6 2.1c.2.1.4 0 .4-.2V117a.55.55 0 0 0-.3-.5z"/><use xlink:href="#T" y="19.4"/><path d="M292.4 129.5l-3.6-2.1c-.2-.1-.4 0-.4.2v4.3a.55.55 0 0 0 .3.5l3.6 2.1c.2.1.4 0 .4-.2V130a.55.55 0 0 0-.3-.5z"/><use xlink:href="#T" y="32.3"/><use xlink:href="#T" y="38.8"/><use xlink:href="#T" y="45.3"/><path d="M292.4 155.3l-3.6-2.1c-.2-.1-.4 0-.4.2v4.3a.55.55 0 0 0 .3.5l3.6 2.1c.2.1.4 0 .4-.2v-4.3c0-.1-.1-.3-.3-.5z"/><use xlink:href="#T" y="58.2"/><use xlink:href="#T" y="64.7"/><use xlink:href="#T" y="71.2"/></g><g class="B"><path d="M396.2 165.5c-.2.2-.3.6-.3 1.3v2.9c0 .5-.2.8-.5.9-.3 0-.8-.1-1.4-.5v1.9c.6.4 1.1.8 1.4 1.2s.5.9.5 1.5v2.7c0 .6.1 1.2.3 1.6.2.5.5.9 1 1.3s1.1.9 1.9 1.3v-1.8c-.5-.3-.9-.6-1-.9-.2-.3-.3-.7-.3-1.1v-2.7c0-1.1-.6-2-1.7-2.9v-.1c1.2.5 1.7.1 1.8-1v-2.6c0-.4.1-.7.3-.8s.5 0 1 .3v-1.8c-.8-.5-1.4-.7-1.9-.8-.5-.2-.9-.1-1.1.1zm10.9 11.7c-.3-.4-.5-.9-.5-1.4v-2.9c0-.9-.2-1.7-.7-2.3s-1.3-1.3-2.5-2v1.8c.5.3.9.6 1 .9.2.3.3.7.3 1.1v2.6c0 1.1.6 2.1 1.8 3v.1c-.6-.2-1-.3-1.3-.1-.3.1-.5.5-.5 1v2.7c0 .4-.1.7-.3.8s-.5 0-1.1-.3v1.8c1.2.7 2 1 2.5.9s.7-.6.7-1.5v-2.7c0-.6.2-.9.5-.9s.8.1 1.4.5v-1.9c-.5-.4-1-.8-1.3-1.2zm7-1.7c-.2.2-.3.6-.3 1.3v2.9c0 .5-.2.8-.5.9-.3 0-.8-.1-1.4-.5v1.9c.6.4 1.1.8 1.4 1.2s.5.9.5 1.5v2.7c0 .6.1 1.2.3 1.6.2.5.5.9 1 1.3s1.1.9 1.9 1.3v-1.8c-.5-.3-.9-.6-1-.9-.2-.3-.3-.7-.3-1.1v-2.7c0-1.1-.6-2-1.7-2.9v-.1c1.2.5 1.7.1 1.8-1v-2.6c0-.4.1-.7.3-.8s.5 0 1 .3v-1.8c-.8-.5-1.4-.7-1.9-.8-.6-.2-.9-.1-1.1.1zm10.9 11.8c-.3-.4-.5-.9-.5-1.4V183c0-.9-.2-1.7-.7-2.3s-1.3-1.3-2.5-2v1.8c.5.3.9.6 1 .9.2.3.3.7.3 1.1v2.6c0 1.1.6 2.1 1.8 3v.1c-.6-.2-1-.3-1.3-.1-.3.1-.5.5-.5 1v2.7c0 .4-.1.7-.3.8s-.5 0-1.1-.3v1.8c1.2.7 2 1 2.5.9s.7-.6.7-1.5v-2.7c0-.6.2-.9.5-.9s.8.1 1.4.5v-1.9c-.5-.4-1-.8-1.3-1.2z"/><path d="M410.3 269.1l-1.7-1c-.2 1.1-.6 2-1.2 2.6l1.2 2.1-2.1 1.2-1.2-2.1c-.9.2-1.8.1-2.9-.3v2l-3-1.7v-2c-1-.8-2-1.9-2.9-3l-1.2.7-2.1-3.6 1.2-.7a15.24 15.24 0 0 1-1.2-4l-1.7-1v-3.4l1.7 1c.2-1.1.6-2 1.2-2.6l-1.2-2.1 2.1-1.2 1.2 2.1c.9-.2 1.8-.1 2.9.3v-2l3 1.7v2c1 .8 2 1.9 2.9 3l1.2-.7 2.1 3.6-1.2.7a15.24 15.24 0 0 1 1.2 4l1.7 1v3.4zm-9.4-2.6c2.2 1.2 3.9.2 3.9-2.2 0-2.5-1.7-5.5-3.9-6.8-2.2-1.2-3.9-.2-3.9 2.2 0 2.5 1.7 5.5 3.9 6.8m21.9 19.3l-1.4-.8c-.2.9-.5 1.6-1 2.1l1 1.7-1.7 1-1-1.7c-.7.1-1.5.1-2.4-.2v1.6l-2.4-1.4v-1.6c-.9-.7-1.7-1.5-2.4-2.5l-1 .6-1.7-3 1-.6c-.5-1.1-.8-2.2-1-3.3l-1.4-.8v-2.8l1.4.8c.2-.9.5-1.6 1-2.1l-1-1.7 1.7-1 1 1.7c.7-.1 1.5-.1 2.4.2v-1.6l2.4 1.4v1.6c.9.7 1.7 1.5 2.4 2.5l1-.6 1.7 3-1 .6c.5 1.1.8 2.2 1 3.3l1.4.8v2.8zm-7.7-2.2c1.8 1 3.2.2 3.2-1.8s-1.4-4.5-3.2-5.5-3.2-.2-3.2 1.8 1.4 4.5 3.2 5.5m-1.8-87.5L394 184.9v1l19.3 11.2zm10.3 7.9L394 186.8v1l29.6 17.2z"/></g><path d="M423.6 202.1l-9-5.3v1l9 5.2z" class="F"/><path d="M413.3 199.9L394 188.7v.9l19.3 11.2zm10.3 7.9L394 190.6v1l29.6 17.1z" class="B"/><path d="M423.6 205.8l-9-5.2v1l9 5.2z" class="F"/><path d="M413.3 205.3L394 194.1v1l19.3 11.2zm10.3 7.9L394 196v1l29.6 17.2zm0-1.9l-9-5.3v1l9 5.2zm-10.3-2.2L394 197.9v1l19.3 11.2zm10.3 7.9L394 199.8v1l29.6 17.1zm0-2l-9-5.2v1l9 5.2zm-10.3-.5L394 203.3v1l19.3 11.2zm10.3 7.9L394 205.3v.9l29.6 17.2zm0-1.9l-9-5.3v1l9 5.3z" class="B"/><path d="M413.3 218.3L394 207.1v1l19.3 11.2z" class="F"/><path d="M423.6 226.2L394 209v1l29.6 17.2zm0-2l-9-5.2v1l9 5.2zm-10.3-.5L394 212.5v1l19.3 11.2zm10.3 7.9L394 214.5v.9l29.6 17.2z" class="B"/><path d="M423.6 229.7l-9-5.2v.9l9 5.3z" class="F"/><path d="M413.3 227.5L394 216.3v1l19.3 11.2zm10.3 7.9L394 218.2v1l29.6 17.2z" class="B"/><path d="M423.6 233.5l-9-5.3v1l9 5.2z" class="F"/><path d="M413.3 232.9L394 221.7v1l19.3 11.2zm10.3 7.9L394 223.7v1l29.6 17.1z" class="B"/><path d="M423.6 238.9l-9-5.2v1l9 5.2z" class="F"/><path d="M413.3 236.7L394 225.5v1l19.3 11.2z" class="B"/><path d="M423.6 244.6L394 227.4v1l29.6 17.2z" class="F"/><path d="M423.6 242.7l-9-5.3v1l9 5.3z" class="B"/><path d="M119.7 109.1v1.8l7.7 4.4v-1.8zm0 3.3v1.8l7.7 4.5v-1.9zm0 3.3v1.9l7.7 4.4v-1.8zm57.9 38.6v-1.8l-47.3-27.3v1.8zm-57.9-35.2v1.8l7.7 4.4v-1.8zm0 3.3v1.8l7.7 4.5v-1.9zm57.9 35.2v-1.8l-47.3-27.3v1.8zm-57.9-25.2v1.8l7.7 4.5v-1.9zm0 3.4v1.8l7.7 4.4v-1.8zm0 13.3v1.8l7.7 4.4v-1.8zm0 3.3v1.9l7.7 4.4v-1.8zm40.4 23.3l-29.8-17.2v1.8l29.8 17.3zm1.6.9v1.9l15.9 9.1v-1.8zm-16.4-12.8l-15-8.6v1.8l15 8.7zm1.6.9v1.9l30.7 17.7v-1.8zm26.7 5.4v1.9l4 2.3v-1.8zm-22.1-16l-21.2-12.3v1.9l21.2 12.2zm-8.7-31.7l-12.5-7.2v1.8l12.5 7.2zm20.6 11.9l-19-11v1.8l19 11zm-11.1-3.1l-13.3-7.7v1.8l13.3 7.7zm14.1 8.1l-12.5-7.2v1.8l12.5 7.2zm1.5.9v1.8l9.7 5.6v-1.8zm-35.1-16.9v1.8l10 5.8v-1.8zm40.9 23.6L144.4 130v1.8l29.3 16.9zm-16.8.3l-19.1-11v1.8l19.1 11zm16.8 9.7l-15.2-8.8v1.8l15.2 8.8zm-1.7 9L153.1 155v1.8l18.9 10.9zm-10.3-2.6v1.8l10.3 6v-1.9zm-27.7-16l-3.7-2.1v1.8l3.7 2.1zm6.9 4v1.8l19.2 11.1v-1.8zm-1.6-.9l-3.7-2.2v1.8l3.7 2.2zm17.3 13.3l-21-12.1v1.8l21 12.1z" opacity=".4" class="C"/><use xlink:href="#U" fill="#9263c1"/><use xlink:href="#V" fill="#8444b2"/><path d="M198.7 183.2h0z" class="D"/><use xlink:href="#W" fill="#7231a3"/><path fill="#f4767a" d="M211.1 154.4l-31.2-18c-1-.5-2-.5-3.1.1h0l-6.8 3.9 3.2 4.3 1.2 1.4V177c0 1.8 1 3.5 2.6 4.5l23.3 13.5.2 1.3 4.8 6.7 7.3-4.3c.7-.4 1.1-1.1 1.1-2v-37.6c0-2-1-3.7-2.6-4.7z"/><path d="M203.8 158.7l-31.5-18.2c-1.5-.9-3.5.2-3.5 2v37.7c0 1.8 1 3.5 2.6 4.5l31.5 18.2c1.6.9 3.5-.2 3.5-2v-37.6c0-1.9-1-3.7-2.6-4.6z" class="G"/><path d="M205.3 202.9h0c-.1 0-.1 0 0 0z" class="D"/><path fill="#d8395a" d="M206.4 200.9v-37.6c0-.6-.1-1.2-.4-1.8l7.3-4.2c.2.6.3 1.1.3 1.7v37.6c0 .9-.5 1.6-1.1 2h0l-7.3 4.3c.8-.4 1.2-1.1 1.2-2z"/><use xlink:href="#U" x="-27.4" y="16" class="C"/><g class="D"><use xlink:href="#V" x="-27.4" y="16"/><path d="M171.3 199.2h0z"/></g><use xlink:href="#W" x="-27.4" y="16" class="E"/><use xlink:href="#U" x="-41.1" y="24" fill="#79ff68"/><use xlink:href="#V" x="-41.1" y="24" class="F"/><path d="M157.6 207.2h0z" class="D"/><use xlink:href="#W" x="-41.1" y="24" fill="#3cc743"/><use xlink:href="#U" x="-54.8" y="32" fill="#ffa8e1"/><use xlink:href="#X" fill="#ff7ad2"/><path d="M143.9 215.2h0z" class="D"/><use xlink:href="#W" x="-54.8" y="32" fill="#de64c6"/><use xlink:href="#U" x="-68.5" y="40" class="C"/><g class="D"><use xlink:href="#X" x="-13.7" y="8"/><path d="M130.2 223.2h0z"/></g><use xlink:href="#W" x="-68.5" y="40" class="E"/><linearGradient id="E" gradientUnits="userSpaceOnUse" x1="92.344" y1="143.621" x2="114.745" y2="250.871"><stop offset="0" stop-color="#1c75bc"/><stop offset=".279" stop-color="#2077bc"/><stop offset=".541" stop-color="#2b7ebc"/><stop offset=".796" stop-color="#3e88bc"/><stop offset="1" stop-color="#5394bc"/></linearGradient><path fill="url(#E)" d="M101.3 178.9l-3.8-2.2v13.8l2.5 1.5v-4.9l1.1.6c1.5.9 2.6 1.1 3.5.8.8-.3 1.2-1.2 1.2-2.7 0-1.4-.4-2.7-1.1-3.9a10.98 10.98 0 0 0-3.4-3zm1.3 6.7c-.4.1-1 0-1.8-.5l-.8-.5v-4.1l1.2.7c.7.4 1.2.9 1.5 1.4s.5 1.1.5 1.8c-.1.7-.3 1.1-.6 1.2z"/><linearGradient id="F" gradientUnits="userSpaceOnUse" x1="101.679" y1="141.671" x2="124.08" y2="248.922"><stop offset="0" stop-color="#1c75bc"/><stop offset=".279" stop-color="#2077bc"/><stop offset=".541" stop-color="#2b7ebc"/><stop offset=".796" stop-color="#3e88bc"/><stop offset="1" stop-color="#5394bc"/></linearGradient><path fill="url(#F)" d="M114.6 192l-4.8-2.8.1-5.4-2.6-1.4v13.8l2.5 1.4v-5.9l4.8 2.7v6l2.5 1.4.1-13.7-2.6-1.5z"/><linearGradient id="G" gradientUnits="userSpaceOnUse" x1="110.945" y1="139.736" x2="133.345" y2="246.987"><stop offset="0" stop-color="#1c75bc"/><stop offset=".279" stop-color="#2077bc"/><stop offset=".541" stop-color="#2b7ebc"/><stop offset=".796" stop-color="#3e88bc"/><stop offset="1" stop-color="#5394bc"/></linearGradient><path fill="url(#G)" d="M126.7 194.6c-.8-1.2-1.9-2.2-3.3-3l-3.8-2.2v13.8l2.5 1.5v-4.9l1.1.6c1.5.9 2.6 1.1 3.4.8s1.2-1.2 1.2-2.7c0-1.4-.4-2.7-1.1-3.9zm-2.1 3.7c-.4.1-1 0-1.8-.5l-.8-.5v-4.1l1.2.7c.7.4 1.2.9 1.5 1.4s.5 1.1.5 1.8-.2 1.1-.6 1.2z"/><g class="C"><path d="M184 162.2c0 .4-.1.7-.2.9-.1.1-.4.1-.7-.1-.2-.1-.4-.3-.7-.5v1.5c.2.2.5.5.9.7s.8.3 1.1.3.6-.2.8-.6c.2-.3.3-.8.3-1.4v-9l-1.5-.9v9.1zm4.2.2l2.1 1.2.5 2.6 1.5.9-2-10.5-2-1.2-2 8.2 1.5.9.4-2.1zm.9-4c.1-.4.1-.8.2-1.1 0 .2.1.6.2 1.2s.1.9.2 1.1l.4 2.4-1.5-.9.5-2.7zm6.8 10.8l1.9-8.2-1.5-.9-1.1 5.1-.3 1.9-.3-2.2-1-6.3-1.5-.9 1.9 10.4 1.9 1.1zm3.3 1.9l.5-2.1 2.1 1.2.5 2.6 1.5.9-2-10.5-2-1.2-2 8.2 1.4.9zm1.3-6.1c.1-.4.1-.8.2-1.1 0 .2.1.6.2 1.1.1.6.1.9.2 1.1l.4 2.4-1.5-.9.5-2.6z"/><use xlink:href="#Y"/><path d="M186.3 169.4l17.4 10.1v-.5l-17.4-10.1zm12.1 5.9l5.3 3.1v-.6l-5.3-3.1z"/><use xlink:href="#Y" y="2.2"/><use xlink:href="#Z"/><path d="M198.4 177.5l5.3 3.1v-.6l-5.3-3z"/><use xlink:href="#Y" y="5.4"/><use xlink:href="#Z" y="3.2"/><path d="M198.4 180.7l5.3 3.1v-.5l-5.3-3.1zm-.8 1.3l-11.3-6.6v.5l11.3 6.6z"/><use xlink:href="#Z" y="5.4"/><path d="M198.4 183l5.3 3v-.5l-5.3-3.1zm-.8 2.2l-11.3-6.6v.6l11.3 6.5z"/><use xlink:href="#Z" y="8.6"/><path d="M198.4 186.2l5.3 3.1v-.6l-5.3-3.1z"/><use xlink:href="#Y" y="13.1"/><use xlink:href="#Z" y="10.8"/><path d="M198.4 188.4l5.3 3.1v-.6l-5.3-3.1z"/><use xlink:href="#Y" y="16.3"/><use xlink:href="#Z" y="14"/><path d="M198.4 191.6l5.3 3.1v-.6l-5.3-3.1z"/><use xlink:href="#Y" y="18.5"/><path d="M186.3 187.9l17.4 10.1v-.5l-17.4-10.1zm12.1 5.9l5.3 3.1v-.6l-5.3-3.1z"/></g><defs ><path id="I" d="M241.2 123.1v1.8l7.6 4.4v-1.8z"/><path id="J" d="M345.1 364l-2.5-1.4-2.7 1.6 2.4 1.4z"/><path id="K" d="M341.6 366l-2.4-1.4-2.8 1.6 2.5 1.4z"/><path id="L" d="M331.3 372l-2.4-1.4-2.8 1.6 2.4 1.4z"/><path id="M" d="M343 366.1l2.4 1.4 2.8-1.6-2.4-1.4z"/><path id="N" d="M339.6 368l2.4 1.4 2.8-1.6-2.5-1.4z"/><path id="O" d="M336.1 370l2.5 1.4 2.7-1.6-2.4-1.4z"/><path id="P" d="M364.1 384.3l-8.7-5c-.2-.1-.5-.1-.7 0l-12 6.9c-.2.1-.2.4 0 .6l8.5 4.9c.3.2.6.2.9 0l12-6.9c.2-.1.2-.4 0-.5z"/><path id="Q" d="M299.5 112.4v2.6l10.9 6.3v-2.6z"/><path id="R" d="M433.1 184.6v1.1l4.4 2.5v-1.1z"/><path id="S" d="M433.1 197.9v1l4.4 2.5v-1z"/><path id="T" d="M292.4 103.6l-3.6-2.1c-.2-.1-.4 0-.4.2v4.3a.55.55 0 0 0 .3.5l3.6 2.1c.2.1.4 0 .4-.2v-4.3a.55.55 0 0 0-.3-.5z"/><path id="U" d="M204.5 134.7l-31.2-18c-1-.5-2-.5-3.1.1h0l-6.8 3.9 3.2 4.3 1.2 1.4v30.9c0 1.8 1 3.5 2.6 4.5l23.3 13.5.2 1.3 4.8 6.7 7.3-4.3c.7-.4 1.1-1.1 1.1-2v-37.6c.1-2-.9-3.7-2.6-4.7z"/><path id="V" d="M197.2 139l-31.5-18.2c-1.5-.9-3.5.2-3.5 2v37.7c0 1.8 1 3.5 2.6 4.5l31.5 18.2c1.6.9 3.5-.2 3.5-2v-37.6c.1-1.9-.9-3.7-2.6-4.6z"/><path id="W" d="M199.9 181.2v-37.6c0-.6-.1-1.2-.4-1.8l7.3-4.2c.2.6.3 1.1.3 1.7v37.6c0 .9-.5 1.6-1.1 2h0l-7.3 4.3c.7-.4 1.2-1.1 1.2-2z"/><path id="X" d="M142.4 171l-31.5-18.2c-1.5-.9-3.5.2-3.5 2v37.7c0 1.8 1 3.5 2.6 4.5l31.5 18.2c1.6.9 3.5-.2 3.5-2v-37.6c.1-1.9-.9-3.6-2.6-4.6z"/><path id="Y" d="M197.6 174.3l-11.3-6.6v.6l11.3 6.6z"/><path id="Z" d="M186.3 171.7l17.4 10.1v-.6l-17.4-10.1z"/></defs></svg>